<svg xmlns="http://www.w3.org/2000/svg" viewBox="0 0 800 600" role="img" aria-labelledby="title desc">
  <title id="title">Pelican riding a bicycle</title>
  <desc id="desc">A white pelican with a large orange beak and pouch pedaling a teal bicycle.</desc>

  <defs>
    <linearGradient id="sky" x1="0" y1="0" x2="0" y2="1">
      <stop offset="0" stop-color="#eaf6fb"/>
      <stop offset="1" stop-color="#fdfefe"/>
    </linearGradient>
    <g id="wheel">
      <circle r="85" fill="none" stroke="#30363d" stroke-width="12"/>
      <circle r="77" fill="none" stroke="#a4b0be" stroke-width="4"/>
      <g stroke="#b2bec3" stroke-width="2">
        <line x1="-76" y1="0" x2="76" y2="0"/>
        <line x1="-76" y1="0" x2="76" y2="0" transform="rotate(30)"/>
        <line x1="-76" y1="0" x2="76" y2="0" transform="rotate(60)"/>
        <line x1="-76" y1="0" x2="76" y2="0" transform="rotate(90)"/>
        <line x1="-76" y1="0" x2="76" y2="0" transform="rotate(120)"/>
        <line x1="-76" y1="0" x2="76" y2="0" transform="rotate(150)"/>
      </g>
      <circle r="9" fill="#576574"/>
    </g>
  </defs>

  <rect width="800" height="600" fill="url(#sky)"/>
  <ellipse cx="400" cy="516" rx="330" ry="16" fill="#0f172a" opacity="0.08"/>

  <use href="#wheel" transform="translate(225,420)"/>
  <use href="#wheel" transform="translate(575,420)"/>

  <path d="M308,222 Q345,290 382,356" stroke="#d97e1e" stroke-width="9" fill="none" stroke-linecap="round"/>
  <path d="M358,352 Q382,343 402,353 Q391,364 362,362 Z" fill="#d97e1e"/>

  <path d="M231,411 L390,400" stroke="#6b7a86" stroke-width="3.5" fill="none"/>
  <path d="M231,429 L390,440" stroke="#6b7a86" stroke-width="3.5" fill="none"/>
  <circle cx="225" cy="420" r="11" fill="none" stroke="#546e7a" stroke-width="5"/>
  <circle cx="390" cy="420" r="20" fill="none" stroke="#546e7a" stroke-width="5"/>

  <g stroke="#1f7a8c" stroke-width="9" stroke-linecap="round" fill="none">
    <path d="M225,420 L390,420"/>
    <path d="M225,420 L340,262"/>
    <path d="M390,420 L340,262"/>
    <path d="M340,262 L520,265"/>
    <path d="M390,420 L540,305"/>
    <path d="M540,305 Q562,368 575,420"/>
  </g>
  <path d="M520,265 L540,305" stroke="#145f6e" stroke-width="13" stroke-linecap="round"/>
  <circle cx="390" cy="420" r="7" fill="#263238"/>

  <path d="M390,420 L390,372" stroke="#37474f" stroke-width="8" stroke-linecap="round"/>
  <rect x="368" y="367" width="44" height="10" rx="4" fill="#263238"/>
  <path d="M390,420 L390,468" stroke="#37474f" stroke-width="8" stroke-linecap="round"/>
  <rect x="368" y="463" width="44" height="10" rx="4" fill="#263238"/>

  <path d="M330,232 Q374,330 390,442" stroke="#f0952f" stroke-width="10" fill="none" stroke-linecap="round"/>
  <path d="M364,446 Q390,436 412,448 Q400,461 370,459 Z" fill="#f0952f"/>

  <path d="M340,262 L334,238" stroke="#576574" stroke-width="7" stroke-linecap="round"/>
  <path d="M300,244 Q314,226 340,228 L386,230 Q394,232 386,238 L344,246 Q318,250 300,244 Z" fill="#5d4037"/>

  <path d="M520,265 L512,238" stroke="#576574" stroke-width="7" stroke-linecap="round"/>
  <path d="M512,238 Q556,228 564,252 Q570,272 556,290" stroke="#2f3640" stroke-width="8" fill="none" stroke-linecap="round"/>
  <line x1="564" y1="268" x2="558" y2="286" stroke="#5d4037" stroke-width="11" stroke-linecap="round"/>

  <path d="M245,178 Q200,148 186,168 Q202,208 248,206 Z" fill="#f3ecdc" stroke="#e3d9c6" stroke-width="2"/>

  <ellipse cx="310" cy="185" rx="78" ry="58" fill="#fdfdf9" stroke="#e3d9c6" stroke-width="2"/>
  <path d="M370,182 C402,148 406,104 454,72" stroke="#e3d9c6" stroke-width="40" fill="none" stroke-linecap="round"/>
  <path d="M370,182 C402,148 406,104 454,72" stroke="#fdfdf9" stroke-width="36" fill="none" stroke-linecap="round"/>

  <path d="M352,150 Q428,164 480,212 Q516,244 550,266 Q558,280 540,284 Q488,270 444,238 Q404,208 348,200 Z" fill="#ece2cd" stroke="#ded2ba" stroke-width="2"/>
  <path d="M398,196 Q462,228 522,260" stroke="#ded2ba" stroke-width="2.5" fill="none"/>

  <circle cx="456" cy="62" r="30" fill="#fdfdf9" stroke="#e3d9c6" stroke-width="2"/>

  <path d="M476,42 L612,63 Q625,68 614,77 L476,72 Z" fill="#f5a623" stroke="#dd9314" stroke-width="2" stroke-linejoin="round"/>
  <path d="M476,70 L612,75 Q586,132 516,145 Q482,134 470,86 Z" fill="#f9c477" stroke="#e8a33d" stroke-width="2.5" stroke-linejoin="round"/>
  <path d="M498,104 Q528,122 558,106" stroke="#e8a33d" stroke-width="2" fill="none" opacity="0.8"/>

  <circle cx="462" cy="50" r="7" fill="#263238"/>
  <circle cx="464.5" cy="47.5" r="2.5" fill="#ffffff"/>
</svg>